<svg width="20" height="24" viewBox="0 0 20 24" fill="none" xmlns="http://www.w3.org/2000/svg">
<path d="M2.07908 17.1945L2.86541 16.5766L2.86541 16.5766L2.07908 17.1945ZM5.05238 20.9787L5.83871 20.3609L5.05238 20.9787ZM15.7366 11.2636L15.9535 10.2875V10.2875L15.7366 11.2636ZM5.5536 6.88965L4.5536 6.88965V6.88965L5.5536 6.88965ZM5.55362 14.8896L4.8465 15.5967C5.13249 15.8827 5.56262 15.9683 5.9363 15.8135C6.30998 15.6588 6.55362 15.2941 6.55362 14.8896L5.55362 14.8896ZM5.14157 14.4776L4.43445 15.1847L5.14157 14.4776ZM8.55359 12.8896C8.55359 13.4419 9.0013 13.8896 9.55359 13.8896C10.1059 13.8896 10.5536 13.4419 10.5536 12.8896H8.55359ZM17.3001 18.7841L18.2839 18.963L17.3001 18.7841ZM18.0374 14.7289L19.0213 14.9077L18.0374 14.7289ZM2.11616 14.6148L1.34791 13.9747H1.34791L2.11616 14.6148ZM0.553711 6.88965C0.553711 7.44193 1.00143 7.88965 1.55371 7.88965C2.106 7.88965 2.55371 7.44193 2.55371 6.88965H0.553711ZM12.5537 6.88965C12.5537 7.44193 13.0014 7.88965 13.5537 7.88965C14.106 7.88965 14.5537 7.44193 14.5537 6.88965H12.5537ZM1.29276 17.8123L4.26606 21.5965L5.83871 20.3609L2.86541 16.5766L1.29276 17.8123ZM8.984 23.8896H12.3807V21.8896H8.984V23.8896ZM15.9535 10.2875L9.77052 8.91346L9.33666 10.8658L15.5196 12.2398L15.9535 10.2875ZM10.5536 9.88965V6.88964H8.55359V9.88965H10.5536ZM4.5536 6.88965L4.55362 14.8897L6.55362 14.8896L6.5536 6.88965L4.5536 6.88965ZM6.26074 14.1826L5.8487 13.7705L4.43445 15.1847L4.8465 15.5967L6.26074 14.1826ZM8.55359 9.88965V12.8896H10.5536V9.88965H8.55359ZM18.2839 18.963L19.0213 14.9077L17.0535 14.55L16.3162 18.6052L18.2839 18.963ZM5.8487 13.7705C4.58023 12.502 2.49631 12.5965 1.34791 13.9747L2.8844 15.255C3.2799 14.7804 3.99759 14.7478 4.43445 15.1847L5.8487 13.7705ZM7.55359 3.88965C5.89674 3.88965 4.55359 5.2328 4.5536 6.88965L6.5536 6.88965C6.5536 6.33736 7.00131 5.88965 7.55359 5.88965V3.88965ZM15.5196 12.2398C16.5684 12.4729 17.2457 13.4929 17.0535 14.55L19.0213 14.9077C19.4056 12.7937 18.0511 10.7536 15.9535 10.2875L15.5196 12.2398ZM12.3807 23.8896C15.2804 23.8896 17.7652 21.8159 18.2839 18.963L16.3162 18.6052C15.9704 20.5072 14.3139 21.8896 12.3807 21.8896V23.8896ZM4.26606 21.5965C5.40357 23.0443 7.14282 23.8896 8.984 23.8896V21.8896C7.75655 21.8896 6.59705 21.3261 5.83871 20.3609L4.26606 21.5965ZM10.5536 6.88964C10.5536 5.23279 9.21044 3.88965 7.55359 3.88965V5.88965C8.10587 5.88965 8.55359 6.33736 8.55359 6.88964H10.5536ZM2.86541 16.5766C2.5591 16.1868 2.56702 15.6359 2.8844 15.255L1.34791 13.9747C0.426353 15.0806 0.403362 16.6803 1.29276 17.8123L2.86541 16.5766ZM2.55371 6.88965C2.55371 4.12822 4.79229 1.88965 7.55371 1.88965V-0.110352C3.68772 -0.110352 0.553711 3.02366 0.553711 6.88965H2.55371ZM7.55371 1.88965C10.3151 1.88965 12.5537 4.12822 12.5537 6.88965H14.5537C14.5537 3.02366 11.4197 -0.110352 7.55371 -0.110352V1.88965Z" fill=""/>
</svg>
