<svg width="29" height="10" viewBox="0 0 29 10" fill="none" xmlns="http://www.w3.org/2000/svg">
<path d="M10.3518 9.05551L11.786 0.988281H14.0269L12.6375 9.05551H10.3518Z" fill="#3C58BF"/>
<path d="M10.3518 9.05551L12.1893 0.988281H14.0269L12.6375 9.05551H10.3518Z" fill="#293688"/>
<path d="M20.7505 1.07876C20.3023 0.899486 19.5852 0.720215 18.6888 0.720215C16.4479 0.720215 14.8345 1.84066 14.8345 3.45411C14.8345 4.66419 15.9549 5.29164 16.8513 5.695C17.7477 6.09837 18.0166 6.36727 18.0166 6.72582C18.0166 7.26363 17.2995 7.53254 16.672 7.53254C15.7757 7.53254 15.2827 7.39809 14.5208 7.08436L14.207 6.94991L13.8933 8.78744C14.4311 9.01153 15.4171 9.23562 16.4479 9.23562C18.8233 9.23562 20.3919 8.11517 20.3919 6.41209C20.3919 5.47092 19.8093 4.75383 18.4647 4.1712C17.658 3.76783 17.165 3.54374 17.165 3.14038C17.165 2.78184 17.5684 2.4233 18.4647 2.4233C19.2266 2.4233 19.7645 2.55775 20.1678 2.73702L20.3919 2.82666L20.7505 1.07876Z" fill="#3C58BF"/>
<path d="M20.7505 1.07876C20.3023 0.899486 19.5852 0.720215 18.6888 0.720215C16.4479 0.720215 15.2378 1.84066 15.2378 3.45411C15.2378 4.66419 15.9549 5.29164 16.8513 5.695C17.7477 6.09837 18.0166 6.36727 18.0166 6.72582C18.0166 7.26363 17.2995 7.53254 16.672 7.53254C15.7757 7.53254 15.2827 7.39809 14.5208 7.08436L14.207 6.94991L13.8933 8.78744C14.4311 9.01153 15.4171 9.23562 16.4479 9.23562C18.8233 9.23562 20.3919 8.11517 20.3919 6.41209C20.3919 5.47092 19.8093 4.75383 18.4647 4.1712C17.658 3.76783 17.165 3.54374 17.165 3.14038C17.165 2.78184 17.5684 2.4233 18.4647 2.4233C19.2266 2.4233 19.7645 2.55775 20.1678 2.73702L20.3919 2.82666L20.7505 1.07876Z" fill="#293688"/>
<path d="M24.6045 0.988281C24.0667 0.988281 23.6633 1.0331 23.4392 1.57091L20.0779 9.05551H22.498L22.9462 7.71097H25.8146L26.0835 9.05551H28.2347L26.3524 0.988281H24.6045ZM23.5737 6.36643C23.7081 5.96307 24.47 3.99108 24.47 3.99108C24.47 3.99108 24.6493 3.49809 24.7837 3.18436L24.9182 3.94626C24.9182 3.94626 25.3664 5.96307 25.456 6.41125H23.5737V6.36643Z" fill="#3C58BF"/>
<path d="M25.1423 0.988281C24.6045 0.988281 24.2011 1.0331 23.977 1.57091L20.0779 9.05551H22.498L22.9462 7.71097H25.8146L26.0835 9.05551H28.2347L26.3524 0.988281H25.1423ZM23.5737 6.36643C23.7529 5.91825 24.47 3.99108 24.47 3.99108C24.47 3.99108 24.6493 3.49809 24.7837 3.18436L24.9182 3.94626C24.9182 3.94626 25.3664 5.96307 25.456 6.41125H23.5737V6.36643Z" fill="#293688"/>
<path d="M6.23073 6.63692L6.00664 5.47165C5.60328 4.12711 4.30356 2.64812 2.86938 1.93103L4.88619 9.10191H7.30636L10.9366 1.03467H8.51644L6.23073 6.63692Z" fill="#3C58BF"/>
<path d="M6.23073 6.63692L6.00664 5.47165C5.60328 4.12711 4.30356 2.64812 2.86938 1.93103L4.88619 9.10191H7.30636L10.9366 1.03467H8.96462L6.23073 6.63692Z" fill="#293688"/>
<path d="M0 0.988281L0.403361 1.07792C3.27171 1.75019 5.2437 3.45327 6.0056 5.47008L5.19888 1.66055C5.06443 1.12274 4.66107 0.988281 4.16807 0.988281H0Z" fill="#FFBC00"/>
<path d="M0 0.988281C2.86835 1.66055 5.2437 3.40845 6.0056 5.42526L5.2437 2.24318C5.10924 1.70537 4.66107 1.39164 4.16807 1.39164L0 0.988281Z" fill="#F7981D"/>
<path d="M0 0.988281C2.86835 1.66055 5.2437 3.40845 6.0056 5.42526L5.46779 3.67736C5.33333 3.13954 5.15406 2.60173 4.52661 2.37764L0 0.988281Z" fill="#ED7C00"/>
</svg>
