<svg width="19" height="13" viewBox="0 0 19 13" fill="none" xmlns="http://www.w3.org/2000/svg">
<path d="M17.6955 2.5338C17.4903 1.77265 16.8859 1.1732 16.1184 0.969762C14.7274 0.600098 9.14934 0.600098 9.14934 0.600098C9.14934 0.600098 3.57135 0.600098 2.18025 0.969762C1.41279 1.17323 0.808355 1.77265 0.603206 2.5338C0.230469 3.91343 0.230469 6.7919 0.230469 6.7919C0.230469 6.7919 0.230469 9.67036 0.603206 11.05C0.808355 11.8111 1.41279 12.3856 2.18025 12.5891C3.57135 12.9587 9.14934 12.9587 9.14934 12.9587C9.14934 12.9587 14.7273 12.9587 16.1184 12.5891C16.8859 12.3856 17.4903 11.8111 17.6955 11.05C18.0682 9.67036 18.0682 6.7919 18.0682 6.7919C18.0682 6.7919 18.0682 3.91343 17.6955 2.5338ZM7.32501 9.40533V4.17847L11.9871 6.79196L7.32501 9.40533Z" fill=""/>
</svg>
