<svg width="16" height="20" viewBox="0 0 16 20" fill="none" xmlns="http://www.w3.org/2000/svg">
<path d="M14.6666 7.49992C14.6666 12.6937 10.0629 17.3119 8.50685 18.7246C8.21477 18.9897 7.78519 18.9897 7.49311 18.7246C5.93703 17.3119 1.33331 12.6937 1.33331 7.49992C1.33331 3.81802 4.31808 0.833252 7.99998 0.833252C11.6819 0.833252 14.6666 3.81802 14.6666 7.49992Z" stroke="" stroke-width="1.5" stroke-linecap="round"/>
<path d="M10.5 7.49992C10.5 8.88063 9.38069 9.99992 7.99998 9.99992C6.61927 9.99992 5.49998 8.88063 5.49998 7.49992C5.49998 6.11921 6.61927 4.99992 7.99998 4.99992C9.38069 4.99992 10.5 6.11921 10.5 7.49992Z" stroke="" stroke-width="1.5" stroke-linecap="round"/>
</svg>
