<svg width="30" height="18" viewBox="0 0 30 18" fill="none" xmlns="http://www.w3.org/2000/svg">
<path d="M29.0589 8.99891C29.0589 13.66 25.2941 17.4695 20.5883 17.4695C15.9272 17.4695 12.1177 13.66 12.1177 8.99891C12.1177 4.33784 15.8824 0.52832 20.5434 0.52832C25.2941 0.52832 29.0589 4.33784 29.0589 8.99891Z" fill="#FFB600"/>
<path d="M20.5883 0.52832C25.2493 0.52832 29.0589 4.33784 29.0589 8.99891C29.0589 13.66 25.2941 17.4695 20.5883 17.4695C15.9272 17.4695 12.1177 13.66 12.1177 8.99891" fill="#F7981D"/>
<path d="M20.5869 0.52832C25.248 0.52832 29.0575 4.33784 29.0575 8.99891C29.0575 13.66 25.2928 17.4695 20.5869 17.4695" fill="#FF8500"/>
<path d="M9.20444 0.52832C4.58819 0.573138 0.823486 4.33784 0.823486 8.99891C0.823486 13.66 4.58819 17.4695 9.29407 17.4695C11.4902 17.4695 13.4621 16.618 14.986 15.2734C15.2997 15.0045 15.5686 14.6908 15.8375 14.3771H14.0896C13.8655 14.1082 13.6414 13.7944 13.4621 13.5255H16.4649C16.6442 13.2566 16.8235 12.9429 16.9579 12.6292H12.9691C12.8347 12.3603 12.7002 12.0465 12.6106 11.7328H17.2717C17.5406 10.8813 17.7198 9.9849 17.7198 9.04373C17.7198 8.41628 17.6302 7.83364 17.5406 7.25101H12.3417C12.3865 6.93728 12.4761 6.66838 12.5658 6.35465H17.2268C17.1372 6.04093 17.0028 5.7272 16.8683 5.45829H12.9243C13.0588 5.14457 13.2381 4.87566 13.4173 4.56193H16.4201C16.2409 4.24821 16.0168 3.93448 15.7479 3.66558H14.0896C14.3585 3.35185 14.6274 3.08294 14.9411 2.81403C13.4621 1.42468 11.4453 0.617956 9.24926 0.617956C9.24926 0.52832 9.24926 0.52832 9.20444 0.52832Z" fill="#FF5050"/>
<path d="M0.823486 8.99912C0.823486 13.6602 4.58819 17.4697 9.29407 17.4697C11.4902 17.4697 13.4621 16.6182 14.986 15.2736C15.2997 15.0047 15.5686 14.691 15.8375 14.3773H14.0896C13.8655 14.1084 13.6414 13.7946 13.4621 13.5257H16.4649C16.6442 13.2568 16.8235 12.9431 16.9579 12.6294H12.9691C12.8347 12.3605 12.7002 12.0467 12.6106 11.733H17.2717C17.5406 10.8815 17.7198 9.98511 17.7198 9.04393C17.7198 8.41648 17.6302 7.83385 17.5406 7.25122H12.3417C12.3865 6.93749 12.4761 6.66858 12.5658 6.35486H17.2268C17.1372 6.04113 17.0028 5.72741 16.8683 5.4585H12.9243C13.0588 5.14477 13.2381 4.87587 13.4173 4.56214H16.4201C16.2409 4.24842 16.0168 3.93469 15.7479 3.66578H14.0896C14.3585 3.35206 14.6274 3.08315 14.9411 2.81424C13.4621 1.42489 11.4453 0.618164 9.24926 0.618164H9.20444" fill="#E52836"/>
<path d="M9.2948 17.47C11.4909 17.47 13.4629 16.6185 14.9867 15.274C15.3004 15.005 15.5693 14.6913 15.8382 14.3776H14.0903C13.8662 14.1087 13.6421 13.795 13.4629 13.5261H16.4657C16.6449 13.2571 16.8242 12.9434 16.9587 12.6297H12.9699C12.8354 12.3608 12.701 12.0471 12.6113 11.7333H17.2724C17.5413 10.8818 17.7206 9.98544 17.7206 9.04426C17.7206 8.41681 17.6309 7.83418 17.5413 7.25155H12.3424C12.3872 6.93782 12.4769 6.66891 12.5665 6.35519H17.2276C17.1379 6.04146 17.0035 5.72774 16.869 5.45883H12.9251C13.0595 5.1451 13.2388 4.8762 13.4181 4.56247H16.4209C16.2416 4.24874 16.0175 3.93502 15.7486 3.66611H14.0903C14.3592 3.35239 14.6281 3.08348 14.9419 2.81457C13.4629 1.42522 11.4797 0.540039 9.28359 0.540039H9.23877" fill="#CB2026"/>
<path d="M12.2975 11.1515L12.432 10.3896C12.3872 10.3896 12.2975 10.4344 12.2079 10.4344C11.8942 10.4344 11.8493 10.2551 11.8942 10.1655L12.1631 8.59688H12.6561L12.7905 7.74533H12.3423L12.432 7.20752H11.5356C11.5356 7.20752 10.9978 10.1655 10.9978 10.524C10.9978 11.0619 11.3115 11.2859 11.7149 11.2859C11.9838 11.2859 12.2079 11.1963 12.2975 11.1515Z" fill="white"/>
<path d="M12.6104 9.7168C12.6104 10.9717 13.4619 11.2854 14.179 11.2854C14.8512 11.2854 15.1202 11.151 15.1202 11.151L15.2994 10.2994C15.2994 10.2994 14.8064 10.5235 14.3583 10.5235C13.3723 10.5235 13.5515 9.80643 13.5515 9.80643H15.3891C15.3891 9.80643 15.5235 9.22381 15.5235 8.99972C15.5235 8.41709 15.2098 7.70001 14.2238 7.70001C13.2826 7.61037 12.6104 8.59636 12.6104 9.7168ZM14.179 8.41709C14.672 8.41709 14.5823 8.99972 14.5823 9.04454H13.5963C13.5963 8.99972 13.686 8.41709 14.179 8.41709Z" fill="white"/>
<path d="M19.8712 11.1506L20.0505 10.1646C20.0505 10.1646 19.6023 10.3887 19.2886 10.3887C18.6612 10.3887 18.3922 9.89567 18.3922 9.35785C18.3922 8.28222 18.9301 7.69958 19.5575 7.69958C20.0057 7.69958 20.3642 7.96849 20.3642 7.96849L20.4987 7.02731C20.4987 7.02731 19.9609 6.80322 19.4679 6.80322C18.4371 6.80322 17.4062 7.69958 17.4062 9.40267C17.4062 10.5231 17.9441 11.285 19.0197 11.285C19.3782 11.285 19.8712 11.1506 19.8712 11.1506Z" fill="white"/>
<path d="M7.36642 7.60986C6.73896 7.60986 6.29078 7.78914 6.29078 7.78914L6.15633 8.55104C6.15633 8.55104 6.55969 8.37177 7.14233 8.37177C7.45605 8.37177 7.72496 8.41659 7.72496 8.6855C7.72496 8.86477 7.68014 8.90959 7.68014 8.90959C7.68014 8.90959 7.41123 8.90959 7.27678 8.90959C6.51487 8.90959 5.66333 9.22332 5.66333 10.2541C5.66333 11.0609 6.20115 11.2401 6.51487 11.2401C7.14233 11.2401 7.41124 10.8368 7.45605 10.8368L7.41123 11.1953H8.21796L8.5765 8.73032C8.5765 7.65468 7.68014 7.60986 7.36642 7.60986ZM7.54569 9.62668C7.54569 9.76114 7.45605 10.4782 6.91824 10.4782C6.64933 10.4782 6.55969 10.2541 6.55969 10.1197C6.55969 9.89559 6.69415 9.58186 7.36642 9.58186C7.50087 9.62668 7.54569 9.62668 7.54569 9.62668Z" fill="white"/>
<path d="M9.4273 11.241C9.65139 11.241 10.7718 11.2858 10.7718 10.0757C10.7718 8.95527 9.6962 9.17936 9.6962 8.73118C9.6962 8.50709 9.87548 8.41746 10.1892 8.41746C10.3237 8.41746 10.8167 8.46227 10.8167 8.46227L10.9511 7.65555C10.9511 7.65555 10.6374 7.56592 10.0996 7.56592C9.4273 7.56592 8.75503 7.83482 8.75503 8.73118C8.75503 9.76199 9.87548 9.67236 9.87548 10.0757C9.87548 10.3446 9.56175 10.3894 9.33766 10.3894C8.9343 10.3894 8.53094 10.255 8.53094 10.255L8.39648 11.0617C8.4413 11.1513 8.66539 11.241 9.4273 11.241Z" fill="white"/>
<path d="M27.3095 6.89307L27.1302 8.10315C27.1302 8.10315 26.7717 7.65497 26.2787 7.65497C25.472 7.65497 24.7549 8.64097 24.7549 9.80623C24.7549 10.5233 25.1134 11.2852 25.8753 11.2852C26.4131 11.2852 26.7269 10.9267 26.7269 10.9267L26.6821 11.2404H27.5784L28.2507 6.93788L27.3095 6.89307ZM26.9061 9.26842C26.9061 9.76141 26.6821 10.3889 26.1891 10.3889C25.8753 10.3889 25.6961 10.12 25.6961 9.67178C25.6961 8.95469 26.0098 8.50651 26.4131 8.50651C26.7269 8.50651 26.9061 8.7306 26.9061 9.26842Z" fill="white"/>
<path d="M2.48142 11.1956L3.01924 7.9687L3.10887 11.1956H3.73633L4.90159 7.9687L4.40859 11.1956H5.34977L6.06686 6.89307H4.58787L3.69151 9.53732L3.64669 6.89307H2.34697L1.62988 11.1956H2.48142Z" fill="white"/>
<path d="M16.3754 11.1955C16.6443 9.7165 16.6891 8.50643 17.3166 8.73051C17.4062 8.14788 17.5407 7.9238 17.6303 7.69971C17.6303 7.69971 17.5855 7.69971 17.451 7.69971C17.0477 7.69971 16.7339 8.23752 16.7339 8.23752L16.8236 7.74452H15.972L15.3894 11.2403H16.3754V11.1955Z" fill="white"/>
<path d="M21.9321 7.60986C21.3046 7.60986 20.8565 7.78914 20.8565 7.78914L20.722 8.55104C20.722 8.55104 21.1254 8.37177 21.708 8.37177C22.0217 8.37177 22.2906 8.41659 22.2906 8.6855C22.2906 8.86477 22.2458 8.90959 22.2458 8.90959C22.2458 8.90959 21.9769 8.90959 21.8425 8.90959C21.0805 8.90959 20.229 9.22332 20.229 10.2541C20.229 11.0609 20.7668 11.2401 21.0805 11.2401C21.708 11.2401 21.9769 10.8368 22.0217 10.8368L21.9769 11.1953H22.7836L23.1422 8.73032C23.187 7.65468 22.2458 7.60986 21.9321 7.60986ZM22.1562 9.62668C22.1562 9.76114 22.0665 10.4782 21.5287 10.4782C21.2598 10.4782 21.1702 10.2541 21.1702 10.1197C21.1702 9.89559 21.3046 9.58186 21.9769 9.58186C22.1114 9.62668 22.1114 9.62668 22.1562 9.62668Z" fill="white"/>
<path d="M23.9045 11.1955C24.1734 9.7165 24.2182 8.50643 24.8456 8.73051C24.9353 8.14788 25.0697 7.9238 25.1594 7.69971C25.1594 7.69971 25.1145 7.69971 24.9801 7.69971C24.5767 7.69971 24.263 8.23752 24.263 8.23752L24.3526 7.74452H23.5011L22.9185 11.2403H23.9045V11.1955Z" fill="white"/>
<path d="M10.9077 10.524C10.9077 11.0619 11.2214 11.2859 11.6248 11.2859C11.9385 11.2859 12.2074 11.1963 12.2971 11.1515L12.4315 10.3896C12.3867 10.3896 12.2971 10.4344 12.2074 10.4344C11.8937 10.4344 11.8489 10.2551 11.8937 10.1655L12.1626 8.59688H12.6556L12.7901 7.74533H12.3419L12.4315 7.20752" fill="#DCE5E5"/>
<path d="M13.0586 9.7168C13.0586 10.9717 13.462 11.2854 14.179 11.2854C14.8513 11.2854 15.1202 11.151 15.1202 11.151L15.2995 10.2994C15.2995 10.2994 14.8065 10.5235 14.3583 10.5235C13.3723 10.5235 13.5516 9.80643 13.5516 9.80643H15.3891C15.3891 9.80643 15.5236 9.22381 15.5236 8.99972C15.5236 8.41709 15.2099 7.70001 14.2239 7.70001C13.2827 7.61037 13.0586 8.59636 13.0586 9.7168ZM14.179 8.41709C14.672 8.41709 14.7617 8.99972 14.7617 9.04454H13.5964C13.5964 8.99972 13.686 8.41709 14.179 8.41709Z" fill="#DCE5E5"/>
<path d="M19.8713 11.1506L20.0506 10.1646C20.0506 10.1646 19.6024 10.3887 19.2887 10.3887C18.6612 10.3887 18.3923 9.89567 18.3923 9.35785C18.3923 8.28222 18.9301 7.69958 19.5576 7.69958C20.0058 7.69958 20.3643 7.96849 20.3643 7.96849L20.4988 7.02731C20.4988 7.02731 19.9609 6.80322 19.4679 6.80322C18.4371 6.80322 17.8545 7.69958 17.8545 9.40267C17.8545 10.5231 17.9441 11.285 19.0198 11.285C19.3783 11.285 19.8713 11.1506 19.8713 11.1506Z" fill="#DCE5E5"/>
<path d="M6.15633 8.59607C6.15633 8.59607 6.55969 8.4168 7.14233 8.4168C7.45605 8.4168 7.72496 8.46162 7.72496 8.73052C7.72496 8.9098 7.68014 8.95462 7.68014 8.95462C7.68014 8.95462 7.41123 8.95462 7.27678 8.95462C6.51487 8.95462 5.66333 9.26834 5.66333 10.2992C5.66333 11.1059 6.20115 11.2852 6.51487 11.2852C7.14233 11.2852 7.41124 10.8818 7.45605 10.8818L7.41123 11.2403H8.21796L8.5765 8.77534C8.5765 7.74453 7.68014 7.69971 7.3216 7.69971L6.15633 8.59607ZM7.99387 9.62689C7.99387 9.76134 7.45605 10.4784 6.91824 10.4784C6.64933 10.4784 6.55969 10.2543 6.55969 10.1199C6.55969 9.8958 6.69415 9.58207 7.36642 9.58207C7.50087 9.62689 7.99387 9.62689 7.99387 9.62689Z" fill="#DCE5E5"/>
<path d="M8.44263 11.1513C8.44263 11.1513 8.71153 11.241 9.47344 11.241C9.69753 11.241 10.818 11.2858 10.818 10.0757C10.818 8.95527 9.74235 9.17936 9.74235 8.73118C9.74235 8.50709 9.92162 8.41746 10.2353 8.41746C10.3698 8.41746 10.8628 8.46227 10.8628 8.46227L10.9972 7.65555C10.9972 7.65555 10.6835 7.56592 10.1457 7.56592C9.47344 7.56592 9.24935 7.83482 9.24935 8.73118C9.24935 9.76199 9.92162 9.67236 9.92162 10.0757C9.92162 10.3446 9.60789 10.3894 9.3838 10.3894" fill="#DCE5E5"/>
<path d="M27.1308 8.10228C27.1308 8.10228 26.7723 7.6541 26.2793 7.6541C25.4726 7.6541 25.2037 8.6401 25.2037 9.80537C25.2037 10.5225 25.1141 11.2844 25.876 11.2844C26.4138 11.2844 26.7275 10.9258 26.7275 10.9258L26.6827 11.2396H27.579L28.2513 6.93701L27.1308 8.10228ZM27.086 9.26755C27.086 9.76055 26.6827 10.388 26.1897 10.388C25.876 10.388 25.6967 10.1191 25.6967 9.67092C25.6967 8.95383 26.0104 8.50565 26.4138 8.50565C26.7275 8.50565 27.086 8.72974 27.086 9.26755Z" fill="#DCE5E5"/>
<path d="M2.48142 11.1956L3.01924 7.9687L3.10887 11.1956H3.73633L4.90159 7.9687L4.40859 11.1956H5.34977L6.06686 6.89307H4.94641L3.69151 9.53732L3.64669 6.89307H3.15369L1.62988 11.1956H2.48142Z" fill="#DCE5E5"/>
<path d="M15.4331 11.1955H16.3743C16.6432 9.71651 16.688 8.50643 17.3155 8.73051C17.4051 8.14788 17.5395 7.9238 17.6292 7.69971C17.6292 7.69971 17.5844 7.69971 17.4499 7.69971C17.0466 7.69971 16.7328 8.23752 16.7328 8.23752L16.8225 7.74452" fill="#DCE5E5"/>
<path d="M20.722 8.59607C20.722 8.59607 21.1254 8.4168 21.708 8.4168C22.0217 8.4168 22.2906 8.46162 22.2906 8.73052C22.2906 8.9098 22.2458 8.95462 22.2458 8.95462C22.2458 8.95462 21.9769 8.95462 21.8425 8.95462C21.0805 8.95462 20.229 9.26834 20.229 10.2992C20.229 11.1059 20.7668 11.2852 21.0805 11.2852C21.708 11.2852 21.9769 10.8818 22.0217 10.8818L21.9769 11.2403H22.7836L23.1422 8.77534C23.1422 7.74453 22.2458 7.69971 21.8873 7.69971L20.722 8.59607ZM22.5595 9.62689C22.5595 9.76134 22.0217 10.4784 21.4839 10.4784C21.215 10.4784 21.1254 10.2543 21.1254 10.1199C21.1254 9.8958 21.2598 9.58207 21.9321 9.58207C22.1114 9.62689 22.5595 9.62689 22.5595 9.62689Z" fill="#DCE5E5"/>
<path d="M22.9624 11.1955H23.9036C24.1725 9.71651 24.2173 8.50643 24.8448 8.73051C24.9344 8.14788 25.0688 7.9238 25.1585 7.69971C25.1585 7.69971 25.1137 7.69971 24.9792 7.69971C24.5758 7.69971 24.2621 8.23752 24.2621 8.23752L24.3518 7.74452" fill="#DCE5E5"/>
</svg>
