<svg width="34" height="13" viewBox="0 0 34 13" fill="none" xmlns="http://www.w3.org/2000/svg">
<path d="M2.90405 3.41902H4.08728L3.49566 1.90283L2.90405 3.41902Z" fill="#2FABF7"/>
<path d="M17.5867 2.12007C17.4792 2.06592 17.3178 2.06592 17.1565 2.06592H16.0808V2.93231H17.1565C17.3178 2.93231 17.4792 2.93231 17.5867 2.87816C17.6943 2.82401 17.7481 2.66156 17.7481 2.49911C17.8019 2.28252 17.6943 2.17422 17.5867 2.12007Z" fill="#228FE0"/>
<path d="M29.0966 0.493652V1.14345L28.7739 0.493652H26.2461V1.14345L25.9234 0.493652H22.4813C21.8897 0.493652 21.4056 0.601952 20.9753 0.81855V0.493652H18.5551V0.81855C18.2862 0.601952 17.9635 0.493652 17.5332 0.493652H8.87418L8.28257 1.84739L7.69096 0.493652H4.94803V1.14345L4.62533 0.493652H2.31267L1.23701 3.03868L0 5.85445H1.23701H2.74293L3.06563 4.98806H3.81859L4.14129 5.85445H7.2607V5.20466L7.52961 5.85445H9.08932L9.35823 5.20466V5.85445H16.8341V4.44657H16.9416C17.0492 4.44657 17.0492 4.44657 17.0492 4.60902V5.80031H20.9216V5.47541C21.2443 5.63786 21.7283 5.80031 22.3737 5.80031H23.9872L24.3099 4.93391H25.0628L25.3855 5.80031H28.505V4.98806L28.989 5.80031H31.5168V0.493652H29.0966ZM10.9179 5.04221H10.0036V2.06399L8.71284 5.04221H7.90609L6.6153 2.06399V5.04221H4.78668L4.4102 4.22997H2.58158L2.25888 5.09636H1.23701L2.8505 1.25175H4.19507L5.70099 4.87976V1.25175H7.15313L8.33636 3.85092L9.41201 1.25175H10.9179V5.04221ZM14.5752 2.06399H12.4776V2.76793H14.5214V3.52603H12.4776V4.28412H14.5752V5.09636H11.5633V1.25175H14.5752V2.06399ZM18.6089 3.63432C18.7165 3.85092 18.7702 4.01337 18.7702 4.33827V5.09636H17.8559V4.60902C17.8559 4.39242 17.8559 4.06752 17.6946 3.85092C17.5332 3.68847 17.3719 3.68847 17.0492 3.68847H16.0811V5.09636H15.1668V1.25175H17.2105C17.6946 1.25175 18.0173 1.25175 18.2862 1.41419C18.5551 1.57664 18.7165 1.84739 18.7165 2.28059C18.7165 2.87623 18.34 3.20113 18.0711 3.30943C18.34 3.36358 18.5013 3.52603 18.6089 3.63432ZM20.2224 5.04221H19.3081V1.1976H20.2224V5.04221ZM30.8176 5.04221H29.5268L27.8058 2.17229V5.04221H25.9772L25.6545 4.22997H23.7721L23.4494 5.09636H22.4275C21.9972 5.09636 21.4594 4.98806 21.1367 4.66317C20.814 4.33827 20.6526 3.90507 20.6526 3.20113C20.6526 2.65963 20.7602 2.11814 21.1367 1.68494C21.4056 1.36004 21.8897 1.25175 22.4813 1.25175H23.3418V2.06399H22.4813C22.1586 2.06399 21.9972 2.11814 21.7821 2.28059C21.6207 2.44304 21.5132 2.76793 21.5132 3.14698C21.5132 3.58018 21.567 3.85092 21.7821 4.06752C21.9434 4.22997 22.1586 4.28412 22.4275 4.28412H22.804L24.041 1.3059H25.3855L26.8915 4.93391V1.3059H28.236L29.7957 3.95922V1.3059H30.7101V5.04221H30.8176Z" fill="#0571C1"/>
<path d="M24.0952 3.41902H25.3322L24.7406 1.90283L24.0952 3.41902Z" fill="#228FE0"/>
<path d="M14.9513 11.2154V8.12891L13.553 9.64509L14.9513 11.2154Z" fill="#228FE0"/>
<path d="M9.19751 8.50781V9.21176H11.1875V9.96985H9.19751V10.7821H11.4026L12.4245 9.64496L11.4564 8.50781H9.19751Z" fill="#2FABF7"/>
<path d="M16.9952 8.50781H15.8657V9.48251H17.0489C17.3716 9.48251 17.5868 9.32006 17.5868 8.99516C17.533 8.67026 17.3179 8.50781 16.9952 8.50781Z" fill="#228FE0"/>
<path d="M33.6131 9.42892V6.99219H32.9677H31.3542C30.8702 6.99219 30.4937 7.10049 30.2248 7.31709V6.99219H27.7508C27.3743 6.99219 26.8902 7.10049 26.6751 7.31709V6.99219H22.3187V7.31709C21.996 7.04634 21.4044 6.99219 21.1355 6.99219H18.2312V7.31709C17.9623 7.04634 17.3169 6.99219 16.9942 6.99219H13.7672L13.0143 7.80443L12.3151 6.99219H7.47461V12.2988H12.2075L12.9605 11.4866L13.6596 12.2988H16.5639V11.0534H16.9404C17.3169 11.0534 17.8009 11.0534 18.1774 10.891V12.353H20.5976V10.9451H20.7052C20.8666 10.9451 20.8666 10.9451 20.8666 11.1076V12.353H28.181C28.6651 12.353 29.1491 12.2447 29.418 12.0281V12.353H31.7307C32.2148 12.353 32.6988 12.2988 33.0215 12.0822C33.5593 11.7573 33.882 11.1617 33.882 10.4578C33.882 10.0787 33.7745 9.69966 33.6131 9.42892ZM16.9404 10.2953H15.8647V11.5949H14.1437L13.068 10.3495L11.9386 11.5949H8.38892V7.75028H11.9924L13.068 8.99572L14.1975 7.75028H17.048C17.7471 7.75028 18.5539 7.96688 18.5539 8.99572C18.5001 10.0787 17.7471 10.2953 16.9404 10.2953ZM22.3187 10.0787C22.4263 10.2412 22.48 10.4578 22.48 10.7827V11.5407H21.5657V11.0534C21.5657 10.8368 21.5657 10.4578 21.4044 10.2953C21.2968 10.1329 21.0817 10.1329 20.759 10.1329H19.7909V11.5407H18.8766V7.69613H20.9203C21.3506 7.69613 21.7271 7.69613 21.996 7.85858C22.2649 8.02103 22.48 8.29178 22.48 8.72497C22.48 9.32062 22.1036 9.64552 21.8346 9.75381C22.1036 9.86211 22.2649 9.97041 22.3187 10.0787ZM26.0297 8.50837H23.9322V9.21232H25.9759V9.97041H23.9322V10.7285H26.0297V11.5407H23.0179V7.69613H26.0297V8.50837ZM28.2886 11.5407H26.5675V10.7285H28.2886C28.4499 10.7285 28.5575 10.7285 28.6651 10.6202C28.7189 10.5661 28.7726 10.4578 28.7726 10.3495C28.7726 10.2412 28.7189 10.1329 28.6651 10.0787C28.6113 10.0246 28.5037 9.97041 28.3424 9.97041C27.4819 9.91626 26.46 9.97041 26.46 8.77912C26.46 8.23763 26.7827 7.64198 27.7508 7.64198H29.5256V8.56252H27.8583C27.697 8.56252 27.5894 8.56252 27.4819 8.61667C27.3743 8.67082 27.3743 8.77912 27.3743 8.88742C27.3743 9.04987 27.4819 9.10402 27.5894 9.15817C27.697 9.21232 27.8046 9.21232 27.9121 9.21232H28.3962C28.8802 9.21232 29.2029 9.32062 29.418 9.53722C29.5794 9.69966 29.687 9.97041 29.687 10.3495C29.687 11.1617 29.2029 11.5407 28.2886 11.5407ZM32.9139 11.1617C32.6988 11.3783 32.3223 11.5407 31.7845 11.5407H30.0634V10.7285H31.7845C31.9458 10.7285 32.0534 10.7285 32.161 10.6202C32.2148 10.5661 32.2685 10.4578 32.2685 10.3495C32.2685 10.2412 32.2148 10.1329 32.161 10.0787C32.1072 10.0246 31.9996 9.97041 31.8383 9.97041C30.9777 9.91626 29.9559 9.97041 29.9559 8.77912C29.9559 8.23763 30.2786 7.64198 31.2467 7.64198H33.0215V8.56252H31.408C31.2467 8.56252 31.1391 8.56252 31.0315 8.61667C30.924 8.67082 30.924 8.77912 30.924 8.88742C30.924 9.04987 30.9777 9.10402 31.1391 9.15817C31.2467 9.21232 31.3542 9.21232 31.4618 9.21232H31.9458C32.4299 9.21232 32.7526 9.32062 32.9677 9.53722C33.0215 9.53722 33.0215 9.59136 33.0215 9.59136C33.1828 9.80796 33.2366 10.0787 33.2366 10.3495C33.2366 10.6744 33.1291 10.9451 32.9139 11.1617Z" fill="#0571C1"/>
<path d="M21.3511 8.61616C21.2436 8.56201 21.0822 8.56201 20.9209 8.56201H19.8452V9.4284H20.9209C21.0822 9.4284 21.2436 9.4284 21.3511 9.37425C21.4587 9.3201 21.5125 9.15766 21.5125 8.99521C21.5663 8.77861 21.4587 8.67031 21.3511 8.61616Z" fill="#228FE0"/>
<path d="M17.5867 2.1186C17.4792 2.06445 17.3178 2.06445 17.1565 2.06445H16.0808V2.93084H17.1565C17.3178 2.93084 17.4792 2.93085 17.5867 2.8767C17.6943 2.82255 17.7481 2.6601 17.7481 2.49765C17.8019 2.28105 17.6943 2.17275 17.5867 2.1186Z" fill="#228FE0"/>
<path d="M24.0952 3.41902H25.3322L24.7406 1.90283L24.0952 3.41902Z" fill="#228FE0"/>
<path d="M14.9513 11.2154V8.12891L13.553 9.64509L14.9513 11.2154Z" fill="#228FE0"/>
<path d="M16.9952 8.50781H15.8657V9.48251H17.0489C17.3716 9.48251 17.5868 9.32006 17.5868 8.99516C17.533 8.67026 17.3179 8.50781 16.9952 8.50781Z" fill="#228FE0"/>
<path d="M21.3511 8.61616C21.2436 8.56201 21.0822 8.56201 20.9209 8.56201H19.8452V9.4284H20.9209C21.0822 9.4284 21.2436 9.4284 21.3511 9.37425C21.4587 9.3201 21.5125 9.15766 21.5125 8.99521C21.5663 8.77861 21.4587 8.67031 21.3511 8.61616Z" fill="#228FE0"/>
<path d="M16.6177 11.4324L15.8647 10.6202V11.5407H14.0899L13.0143 10.2953L11.831 11.5407H8.28135V7.75028H11.8848L13.0143 8.99572L13.5521 8.34593L12.2075 6.99219H7.47461V12.2988H12.2075L13.0143 11.4866L13.7134 12.2988H16.6177V11.4324Z" fill="#2FABF7"/>
<path d="M11.0255 5.80031L10.3263 5.04221H10.0036V4.71732L9.19688 3.90507L8.65905 5.04221H7.90609L6.6153 2.06399V5.04221H4.78668L4.4102 4.22997H2.58158L2.2051 5.04221H1.23701L2.85049 1.25175H4.19507L5.70099 4.87977V1.25175H6.50773L5.75477 0.493652H4.94803V1.14345L4.67911 0.493652H2.31267L1.23701 3.03868L0 5.80031H1.23701H2.79671L3.11941 4.98807H3.87237L4.24885 5.80031H7.26069V5.15051L7.52961 5.80031H9.08931L9.35823 5.15051V5.80031H11.0255Z" fill="#2FABF7"/>
<path d="M8.55022 3.30878L7.6897 2.44238L8.33509 3.85027L8.55022 3.30878Z" fill="#2FABF7"/>
<path d="M33.0211 12.0275C33.5052 11.7026 33.8279 11.1611 33.8817 10.5654L33.1287 9.80732C33.1825 9.96977 33.2363 10.1322 33.2363 10.3488C33.2363 10.6737 33.1287 10.9445 32.9136 11.1611C32.6984 11.3777 32.322 11.5401 31.7841 11.5401H30.0631V10.7279H31.7841C31.9455 10.7279 32.053 10.7279 32.1606 10.6196C32.2144 10.5654 32.2682 10.4571 32.2682 10.3488C32.2682 10.2405 32.2144 10.1322 32.1606 10.0781C32.1068 10.0239 31.9993 9.96977 31.8379 9.96977C30.9774 9.91562 29.9555 9.96977 29.9555 8.77848C29.9555 8.23699 30.2782 7.74964 31.085 7.64134L30.4933 7.0457C30.3858 7.09985 30.332 7.154 30.2782 7.154V6.8291H27.8042C27.4277 6.8291 26.9437 6.9374 26.7286 7.154V6.8291H22.3184V7.154C21.9957 6.88325 21.4041 6.8291 21.1351 6.8291H18.2309V7.154C17.962 6.88325 17.3166 6.8291 16.9939 6.8291H13.7669L13.0139 7.64134L12.3148 6.8291H11.7231L13.3366 8.45359L14.1434 7.5872H16.9939C17.693 7.5872 18.4998 7.80379 18.4998 8.83263C18.4998 9.91562 17.7468 10.1322 16.9401 10.1322H15.8644V10.9445L16.6712 11.7567V10.9445H16.9401C17.3166 10.9445 17.8006 10.9445 18.1771 10.782V12.2441H20.5973V10.8362H20.7049C20.8662 10.8362 20.8662 10.8362 20.8662 10.9986V12.2441H28.1807C28.6647 12.2441 29.1488 12.1358 29.4177 11.9192V12.2441H31.7304C32.1606 12.2982 32.6447 12.2441 33.0211 12.0275ZM22.3184 10.0781C22.4259 10.2405 22.4797 10.4571 22.4797 10.782V11.5401H21.5654V11.0528C21.5654 10.8362 21.5654 10.4571 21.4041 10.2947C21.2965 10.1322 21.0814 10.1322 20.7587 10.1322H19.7906V11.5401H18.8763V7.69549H20.92C21.3503 7.69549 21.7267 7.69549 21.9957 7.85794C22.2646 8.02039 22.4797 8.29114 22.4797 8.72433C22.4797 9.31998 22.1032 9.64488 21.8343 9.75318C22.1032 9.86147 22.2646 9.96977 22.3184 10.0781ZM26.0294 8.50774H23.9318V9.21168H25.9756V9.96977H23.9318V10.7279H26.0294V11.5401H23.0175V7.69549H26.0294V8.50774ZM28.2883 11.5401H26.5672V10.7279H28.2883C28.4496 10.7279 28.5572 10.7279 28.6647 10.6196C28.7185 10.5654 28.7723 10.4571 28.7723 10.3488C28.7723 10.2405 28.7185 10.1322 28.6647 10.0781C28.6109 10.0239 28.5034 9.96977 28.342 9.96977C27.4815 9.91562 26.4596 9.96977 26.4596 8.77848C26.4596 8.23699 26.7823 7.64134 27.7504 7.64134H29.5253V8.56189H27.858C27.6966 8.56189 27.5891 8.56189 27.4815 8.61603C27.3739 8.67018 27.3739 8.77848 27.3739 8.88678C27.3739 9.04923 27.4815 9.10338 27.5891 9.15753C27.6966 9.21168 27.8042 9.21168 27.9118 9.21168H28.3958C28.8799 9.21168 29.2026 9.31998 29.4177 9.53658C29.579 9.69903 29.6866 9.96977 29.6866 10.3488C29.6866 11.1611 29.2026 11.5401 28.2883 11.5401Z" fill="#228FE0"/>
<path d="M30.8704 8.8874C30.8704 9.04985 30.9241 9.104 31.0855 9.15815C31.1931 9.21229 31.3006 9.2123 31.4082 9.2123H31.8922C32.2149 9.2123 32.4301 9.26645 32.6452 9.37474L31.8385 8.5625H31.3544C31.1931 8.5625 31.0855 8.5625 30.9779 8.61665C30.9241 8.6708 30.8704 8.7791 30.8704 8.8874Z" fill="#228FE0"/>
<path d="M28.9897 5.64014L29.0973 5.80258H29.1511L28.9897 5.64014Z" fill="#228FE0"/>
<path d="M26.0317 2.66211L26.946 4.88224V3.58265L26.0317 2.66211Z" fill="#228FE0"/>
<path d="M16.8335 4.44808H16.9411C17.0487 4.44808 17.0487 4.44808 17.0487 4.61053V5.80182H20.921V5.47692C21.2437 5.63937 21.7278 5.80182 22.3732 5.80182H23.9866L24.3093 4.93543H25.0623L25.385 5.80182H28.5044V5.26033L27.7515 4.50223V5.09788H25.9228L25.6539 4.23149H23.7715L23.4488 5.09788H22.4269C21.9967 5.09788 21.4589 4.98958 21.1362 4.66468C20.8135 4.33978 20.6521 3.90659 20.6521 3.20264C20.6521 2.66115 20.7597 2.11965 21.1362 1.68646C21.4051 1.36156 21.8891 1.25326 22.4807 1.25326H23.3413V2.0655H22.4807C22.158 2.0655 21.9967 2.11965 21.7815 2.2821C21.6202 2.44455 21.5126 2.76945 21.5126 3.14849C21.5126 3.58169 21.5664 3.85244 21.7815 4.06904C21.9429 4.23148 22.158 4.28563 22.4269 4.28563H22.8034L24.0404 1.30741H24.5783L23.8253 0.549316H22.4269C21.8353 0.549316 21.3513 0.657616 20.921 0.874214V0.549316H18.5546V0.874214C18.2857 0.657616 17.963 0.549316 17.5327 0.549316H8.87365L8.28204 1.90305L7.69042 0.549316H5.32397L6.07694 1.30741H7.15259L8.0669 3.31094L8.3896 3.63584L9.35769 1.25326H10.8636V5.09788H9.94931V2.11965L9.035 4.28563L10.5947 5.85597H16.7797L16.8335 4.44808ZM19.3075 1.25326H20.2218V5.09788H19.3075V1.25326ZM14.5746 2.0655H12.4771V2.76945H14.5209V3.52754H12.4771V4.28563H14.5746V5.09788H11.5628V1.25326H14.5746V2.0655ZM16.0806 5.04373H15.1663V1.19911H17.21C17.694 1.19911 18.0167 1.19911 18.2857 1.36156C18.5546 1.52401 18.7159 1.79476 18.7159 2.22795C18.7159 2.8236 18.3394 3.14849 18.0705 3.25679C18.2857 3.31094 18.447 3.47339 18.5008 3.58169C18.6084 3.79829 18.6621 3.96074 18.6621 4.28563V5.04373H17.7478V4.55638C17.7478 4.33978 17.7478 4.01489 17.5865 3.79829C17.5327 3.68999 17.3713 3.68999 17.0487 3.68999H16.0806V5.04373Z" fill="#228FE0"/>
</svg>
