<svg width="14" height="14" viewBox="0 0 14 14" fill="none" xmlns="http://www.w3.org/2000/svg">
<path d="M7.0029 3.76561C5.18576 3.76561 3.72004 5.20843 3.72004 6.99718C3.72004 8.78593 5.18576 10.2287 7.0029 10.2287C8.82005 10.2287 10.2858 8.78593 10.2858 6.99718C10.2858 5.20843 8.82005 3.76561 7.0029 3.76561ZM7.0029 9.09811C5.82862 9.09811 4.86862 8.15593 4.86862 6.99718C4.86862 5.83843 5.82576 4.89624 7.0029 4.89624C8.18005 4.89624 9.13719 5.83843 9.13719 6.99718C9.13719 8.15593 8.17719 9.09811 7.0029 9.09811ZM11.1858 3.63343C11.1858 4.05249 10.8429 4.38718 10.42 4.38718C9.99433 4.38718 9.65433 4.04968 9.65433 3.63343C9.65433 3.21718 9.99719 2.87968 10.42 2.87968C10.8429 2.87968 11.1858 3.21718 11.1858 3.63343ZM13.36 4.39843C13.3115 3.38874 13.0772 2.49436 12.3258 1.75749C11.5772 1.02062 10.6686 0.78999 9.6429 0.739365C8.58576 0.680303 5.41719 0.680303 4.36004 0.739365C3.33719 0.787178 2.42862 1.0178 1.67719 1.75468C0.925758 2.49155 0.694329 3.38593 0.6429 4.39561C0.5829 5.43624 0.5829 8.5553 0.6429 9.59593C0.691472 10.6056 0.925758 11.5 1.67719 12.2369C2.42862 12.9737 3.33433 13.2044 4.36004 13.255C5.41719 13.314 8.58576 13.314 9.6429 13.255C10.6686 13.2072 11.5772 12.9766 12.3258 12.2369C13.0743 11.5 13.3086 10.6056 13.36 9.59593C13.42 8.5553 13.42 5.43905 13.36 4.39843ZM11.9943 10.7125C11.7715 11.2637 11.34 11.6884 10.7772 11.9106C9.93433 12.2397 7.93433 12.1637 7.0029 12.1637C6.07147 12.1637 4.06862 12.2369 3.22862 11.9106C2.66862 11.6912 2.23719 11.2666 2.01147 10.7125C1.67719 9.8828 1.75433 7.91405 1.75433 6.99718C1.75433 6.0803 1.68004 4.10874 2.01147 3.28186C2.23433 2.73061 2.66576 2.30593 3.22862 2.08374C4.07147 1.75468 6.07147 1.83061 7.0029 1.83061C7.93433 1.83061 9.93719 1.75749 10.7772 2.08374C11.3372 2.30311 11.7686 2.7278 11.9943 3.28186C12.3286 4.11155 12.2515 6.0803 12.2515 6.99718C12.2515 7.91405 12.3286 9.88561 11.9943 10.7125Z" fill=""/>
</svg>
