<svg width="20" height="20" viewBox="0 0 20 20" fill="none" xmlns="http://www.w3.org/2000/svg">
<path d="M1.74876 3.33108C2.52961 11.207 8.79313 17.4705 16.669 18.2514C17.585 18.3422 18.3334 17.5872 18.3334 16.6667V13.7013C18.3334 12.984 17.8743 12.3471 17.1937 12.1202L14.3106 11.1591C13.7117 10.9595 13.0514 11.1154 12.605 11.5618L12.1435 12.0233C11.8654 12.3013 11.4296 12.3487 11.1051 12.1267C9.60945 11.1036 8.77053 10.2665 7.8562 8.8898C7.6422 8.5676 7.69335 8.14009 7.96686 7.86658L8.43833 7.39511C8.88472 6.94872 9.04059 6.28844 8.84096 5.68955L7.8799 2.80637C7.65304 2.1258 7.01615 1.66675 6.29876 1.66675H3.33336C2.41289 1.66675 1.65794 2.4151 1.74876 3.33108Z" stroke="" stroke-width="1.5" stroke-linecap="round"/>
</svg>
