<svg width="16" height="12" viewBox="0 0 16 12" fill="none" xmlns="http://www.w3.org/2000/svg">
<path d="M13.7198 3.2146C13.729 3.33812 13.729 3.46167 13.729 3.5852C13.729 7.35283 10.7594 11.694 5.33198 11.694C3.65989 11.694 2.1066 11.2264 0.799988 10.4146C1.03756 10.4411 1.26596 10.4499 1.51268 10.4499C2.89236 10.4499 4.16243 9.99992 5.17665 9.23227C3.87918 9.20579 2.79186 8.3852 2.41724 7.25578C2.6 7.28224 2.78272 7.29989 2.97462 7.29989C3.23959 7.29989 3.50458 7.26458 3.75127 7.20285C2.39898 6.93812 1.38474 5.79107 1.38474 4.40578V4.3705C1.77762 4.58226 2.23451 4.71462 2.71874 4.73224C1.92381 4.22047 1.40302 3.34695 1.40302 2.35871C1.40302 1.8293 1.54918 1.34401 1.80504 0.920477C3.25784 2.64989 5.44162 3.77928 7.89033 3.90283C7.84465 3.69107 7.81723 3.4705 7.81723 3.24991C7.81723 1.6793 9.13298 0.399902 10.7685 0.399902C11.6183 0.399902 12.3858 0.744019 12.9249 1.2999C13.5919 1.17638 14.2314 0.938131 14.798 0.611669C14.5786 1.27345 14.1127 1.82933 13.5005 2.18225C14.0944 2.12051 14.6701 1.96165 15.2 1.74109C14.798 2.30577 14.2955 2.80869 13.7198 3.2146Z" fill=""/>
</svg>
