<svg width="40" height="11" viewBox="0 0 40 11" fill="none" xmlns="http://www.w3.org/2000/svg">
<path d="M30.7344 3.29199H28.6011C28.4756 3.29199 28.3501 3.41748 28.2874 3.54297L27.4089 9.06452C27.4089 9.19 27.4717 9.25275 27.5972 9.25275H28.7266C28.8521 9.25275 28.9148 9.19 28.9148 9.06452L29.1658 7.49589C29.1658 7.3704 29.2913 7.24492 29.4795 7.24492H30.1697C31.6129 7.24492 32.4285 6.55472 32.6168 5.17434C32.7423 4.60963 32.6168 4.10768 32.3658 3.79395C31.9893 3.48023 31.4246 3.29199 30.7344 3.29199ZM30.9854 5.36257C30.8599 6.11551 30.2952 6.11551 29.7305 6.11551H29.354L29.605 4.67238C29.605 4.60963 29.6678 4.54689 29.7932 4.54689H29.9187C30.2952 4.54689 30.6717 4.54689 30.8599 4.79787C30.9854 4.86061 30.9854 5.04885 30.9854 5.36257Z" fill="#139AD6"/>
<path d="M15.3628 3.29199H13.2295C13.104 3.29199 12.9785 3.41748 12.9158 3.54297L12.0374 9.06452C12.0374 9.19 12.1001 9.25275 12.2256 9.25275H13.2295C13.355 9.25275 13.4805 9.12726 13.5432 9.00177L13.7942 7.49589C13.7942 7.3704 13.9197 7.24492 14.1079 7.24492H14.7981C16.2413 7.24492 17.057 6.55472 17.2452 5.17434C17.3707 4.60963 17.2452 4.10768 16.9942 3.79395C16.6177 3.48023 16.1158 3.29199 15.3628 3.29199ZM15.6138 5.36257C15.4883 6.11551 14.9236 6.11551 14.3589 6.11551H14.0452L14.2962 4.67238C14.2962 4.60963 14.3589 4.54689 14.4844 4.54689H14.6099C14.9864 4.54689 15.3628 4.54689 15.5511 4.79787C15.6138 4.86061 15.6766 5.04885 15.6138 5.36257Z" fill="#263B80"/>
<path d="M21.8243 5.29932H20.8203C20.7576 5.29932 20.6321 5.36206 20.6321 5.42481L20.5694 5.73853L20.5066 5.61304C20.2556 5.29932 19.8164 5.17383 19.3145 5.17383C18.1851 5.17383 17.1812 6.05225 16.9929 7.2444C16.8674 7.87185 17.0557 8.43655 17.3694 8.81302C17.6831 9.18949 18.1223 9.31498 18.687 9.31498C19.6282 9.31498 20.1302 8.75028 20.1302 8.75028L20.0674 9.064C20.0674 9.18949 20.1302 9.25224 20.2556 9.25224H21.1968C21.3223 9.25224 21.4478 9.12675 21.5105 9.00126L22.0752 5.48755C22.0125 5.42481 21.887 5.29932 21.8243 5.29932ZM20.3811 7.30715C20.2556 7.87185 19.8164 8.31106 19.189 8.31106C18.8753 8.31106 18.6243 8.18557 18.4988 8.06009C18.3733 7.87185 18.3106 7.62087 18.3106 7.30715C18.3733 6.74245 18.8753 6.30323 19.44 6.30323C19.7537 6.30323 19.9419 6.42872 20.1302 6.55421C20.3184 6.74245 20.3811 7.05617 20.3811 7.30715Z" fill="#263B80"/>
<path d="M37.1317 5.29932H36.1278C36.065 5.29932 35.9395 5.36206 35.9395 5.42481L35.8768 5.73853L35.814 5.61304C35.563 5.29932 35.1238 5.17383 34.6219 5.17383C33.4925 5.17383 32.4885 6.05225 32.3003 7.2444C32.1748 7.87185 32.363 8.43655 32.6768 8.81302C32.9905 9.18949 33.4297 9.31498 33.9944 9.31498C34.9356 9.31498 35.4376 8.75028 35.4376 8.75028L35.3748 9.064C35.3748 9.18949 35.4376 9.25223 35.5631 9.25223H36.5042C36.6297 9.25223 36.7552 9.12674 36.818 9.00126L37.3827 5.48755C37.3199 5.42481 37.2572 5.29932 37.1317 5.29932ZM35.6885 7.30715C35.563 7.87185 35.1238 8.31106 34.4964 8.31106C34.1827 8.31106 33.9317 8.18557 33.8062 8.06008C33.6807 7.87185 33.6179 7.62087 33.6179 7.30715C33.6807 6.74245 34.1827 6.30323 34.7474 6.30323C35.0611 6.30323 35.2493 6.42872 35.4376 6.55421C35.6885 6.74244 35.7513 7.05617 35.6885 7.30715Z" fill="#139AD6"/>
<path d="M27.2818 5.29639H26.2152C26.0897 5.29639 26.0269 5.35913 25.9642 5.42188L24.5838 7.55522L23.9563 5.54737C23.8936 5.42188 23.8308 5.35913 23.6426 5.35913H22.6387C22.5132 5.35913 22.4504 5.48462 22.4504 5.61011L23.5799 8.93562L22.5132 10.4415C22.4504 10.567 22.5132 10.7552 22.6387 10.7552H23.6426C23.7681 10.7552 23.8308 10.6925 23.8936 10.6297L27.3446 5.67286C27.5328 5.48462 27.4073 5.29639 27.2818 5.29639Z" fill="#263B80"/>
<path d="M38.3267 3.47921L37.4482 9.12627C37.4482 9.25176 37.511 9.3145 37.6365 9.3145H38.5149C38.6404 9.3145 38.7659 9.18901 38.8286 9.06352L39.7071 3.54195C39.7071 3.41646 39.6443 3.35372 39.5188 3.35372H38.5149C38.4522 3.29097 38.3894 3.35372 38.3267 3.47921Z" fill="#139AD6"/>
<path d="M7.3922 1.4087C6.95298 0.906741 6.1373 0.655762 5.00789 0.655762H1.87063C1.6824 0.655762 1.49416 0.843996 1.43142 1.03223L0.176514 9.25184C0.176514 9.44008 0.302004 9.56557 0.427494 9.56557H2.37259L2.87455 6.49106V6.61655C2.9373 6.42831 3.12553 6.24007 3.31377 6.24007H4.25494C6.07455 6.24007 7.45494 5.48713 7.89416 3.41655C7.89416 3.3538 7.89416 3.29106 7.89416 3.22831C7.83142 3.22831 7.83142 3.22831 7.89416 3.22831C7.95691 2.41262 7.83142 1.91066 7.3922 1.4087Z" fill="#263B80"/>
<path d="M7.83163 3.22705C7.83163 3.2898 7.83163 3.35254 7.83163 3.41529C7.39241 5.54862 6.01202 6.23882 4.19241 6.23882H3.25124C3.063 6.23882 2.87477 6.42705 2.81202 6.61529L2.18457 10.4427C2.18457 10.5682 2.24732 10.6937 2.43555 10.6937H4.06692C4.25516 10.6937 4.44339 10.5682 4.44339 10.38V10.3172L4.75712 8.37215V8.24666C4.75712 8.05842 4.94535 7.93293 5.13359 7.93293H5.38457C6.9532 7.93293 8.2081 7.30548 8.52183 5.42313C8.64732 4.67019 8.58457 3.97999 8.2081 3.54078C8.14535 3.41529 8.01986 3.2898 7.83163 3.22705Z" fill="#139AD6"/>
<path d="M7.39143 3.04029C7.32868 3.04029 7.26594 2.97754 7.20319 2.97754C7.14045 2.97754 7.0777 2.97754 7.01496 2.91479C6.76397 2.85205 6.513 2.85205 6.19927 2.85205H3.75221C3.68947 2.85205 3.62672 2.85205 3.56398 2.91479C3.43849 2.97754 3.37574 3.10303 3.37574 3.22852L2.87378 6.49127V6.61676C2.93652 6.42852 3.12476 6.24029 3.31299 6.24029H4.25417C6.07378 6.24029 7.45417 5.48735 7.89339 3.41676C7.89339 3.35401 7.89339 3.29127 7.95613 3.22852C7.83064 3.16578 7.7679 3.10303 7.64241 3.10303C7.45417 3.04029 7.45417 3.04029 7.39143 3.04029Z" fill="#232C65"/>
</svg>
