<svg width="16" height="16" viewBox="0 0 16 16" fill="none" xmlns="http://www.w3.org/2000/svg">
<path d="M16 8C16 12.2812 12.5984 15.75 8.39999 15.75C7.61547 15.75 6.8616 15.6281 6.15063 15.4031C6.46015 14.8875 6.92289 14.0437 7.0945 13.3719C7.18644 13.0094 7.56644 11.5281 7.56644 11.5281C7.81466 12.0094 8.53789 12.4187 9.30708 12.4187C11.5993 12.4187 13.2511 10.2688 13.2511 7.59688C13.2511 5.0375 11.201 3.12188 8.56547 3.12188C5.28644 3.12188 3.54273 5.36562 3.54273 7.8125C3.54273 8.95 4.13725 10.3656 5.08418 10.8156C5.22821 10.8844 5.30483 10.8531 5.33854 10.7125C5.36305 10.6062 5.49176 10.0781 5.54999 9.83438C5.56837 9.75625 5.55918 9.6875 5.49789 9.6125C5.18837 9.22188 4.93708 8.50937 4.93708 7.84375C4.93708 6.13438 6.20579 4.48125 8.36934 4.48125C10.2356 4.48125 11.5442 5.77812 11.5442 7.63438C11.5442 9.73125 10.5053 11.1844 9.15386 11.1844C8.40918 11.1844 7.84837 10.5563 8.02918 9.78438C8.2437 8.8625 8.65741 7.86875 8.65741 7.20312C8.65741 6.60938 8.34483 6.1125 7.69515 6.1125C6.93208 6.1125 6.31918 6.91563 6.31918 7.99375C6.31918 8.68125 6.54595 9.14375 6.54595 9.14375C6.54595 9.14375 5.79515 12.3875 5.65725 12.9937C5.50402 13.6625 5.56531 14.6062 5.62966 15.2188C2.80418 14.0906 0.799988 11.2844 0.799988 8C0.799988 3.71875 4.2016 0.25 8.39999 0.25C12.5984 0.25 16 3.71875 16 8Z" fill=""/>
</svg>
