<svg width="44" height="10" viewBox="0 0 44 10" fill="none" xmlns="http://www.w3.org/2000/svg">
<path fill-rule="evenodd" clip-rule="evenodd" d="M17.3588 7.50802C15.7942 8.71242 13.5237 9.35265 11.5708 9.35265C8.83203 9.35265 6.36621 8.29787 4.50039 6.54155C4.35451 6.40418 4.48392 6.2153 4.66038 6.32078C6.67444 7.54236 9.16378 8.27825 11.7355 8.27825C13.4695 8.27825 15.3777 7.90294 17.1306 7.12781C17.3965 7.01006 17.6177 7.30933 17.3588 7.50802Z" fill="#F8991D"/>
<path fill-rule="evenodd" clip-rule="evenodd" d="M18.0125 6.73236C17.8125 6.46498 16.6901 6.6048 16.1843 6.66858C16.0313 6.6882 16.0078 6.54839 16.1443 6.44781C17.0407 5.79287 18.5089 5.98175 18.6783 6.20007C18.8501 6.42083 18.6336 7.95638 17.7936 8.68737C17.6642 8.8002 17.5419 8.73888 17.5983 8.5917C17.7889 8.10111 18.2124 6.99973 18.0125 6.73236Z" fill="#F8991D"/>
<path fill-rule="evenodd" clip-rule="evenodd" d="M16.2172 1.81285V1.17508C16.2172 1.07696 16.2878 1.01318 16.3725 1.01318H19.1136C19.2007 1.01318 19.2712 1.07941 19.2712 1.17508V1.72209C19.2712 1.81285 19.196 1.93304 19.0642 2.12437L17.6454 4.23637C18.1725 4.22411 18.7301 4.30506 19.2077 4.58715C19.3159 4.65092 19.3442 4.74414 19.3536 4.8349V5.51436C19.3536 5.60758 19.2548 5.71551 19.1512 5.65909C18.3089 5.19793 17.1889 5.14887 16.2549 5.664C16.1584 5.71796 16.0596 5.61003 16.0596 5.51682V4.86924C16.0596 4.76621 16.0619 4.5896 16.1607 4.43016L17.8054 1.96984H16.3725C16.2878 1.97229 16.2172 1.90851 16.2172 1.81285Z" fill="#333E47"/>
<path fill-rule="evenodd" clip-rule="evenodd" d="M6.21919 5.79489H5.38627C5.30627 5.78998 5.24274 5.72621 5.23804 5.64771V1.18577C5.23804 1.09747 5.31098 1.02633 5.39803 1.02633H6.17448C6.25683 1.03124 6.32036 1.09501 6.32506 1.17596V1.75731H6.34153C6.54388 1.19313 6.92505 0.930664 7.43797 0.930664C7.96031 0.930664 8.28736 1.19313 8.5203 1.75731C8.72264 1.19313 9.18145 0.930664 9.6732 0.930664C10.0238 0.930664 10.4049 1.08029 10.6379 1.4188C10.9014 1.79411 10.8473 2.33867 10.8473 2.81699V5.633C10.8473 5.7213 10.7743 5.79244 10.6873 5.79244H9.85437C9.76967 5.78753 9.70379 5.71885 9.70379 5.633V3.26834C9.70379 3.08191 9.72026 2.61094 9.68026 2.43433C9.61909 2.13262 9.43086 2.04922 9.19086 2.04922C8.98852 2.04922 8.77911 2.18903 8.69206 2.41471C8.60735 2.64038 8.61441 3.01568 8.61441 3.26834V5.633C8.61441 5.7213 8.54147 5.79244 8.45442 5.79244H7.6215C7.53679 5.78753 7.47091 5.71885 7.47091 5.633V3.26834C7.47091 2.77039 7.54856 2.0394 6.95799 2.0394C6.358 2.0394 6.38153 2.75322 6.38153 3.26834V5.633C6.38153 5.72375 6.30859 5.79489 6.21919 5.79489Z" fill="#333E47"/>
<path fill-rule="evenodd" clip-rule="evenodd" d="M21.64 1.84218C21.0259 1.84218 20.9859 2.71543 20.9859 3.25999C20.9859 3.80455 20.9789 4.96725 21.633 4.96725C22.28 4.96725 22.3106 4.02777 22.3106 3.45623C22.3106 3.08092 22.2941 2.62958 22.1859 2.2739C22.0894 1.96237 21.9035 1.84218 21.64 1.84218ZM21.6306 0.932129C22.8682 0.932129 23.5364 2.04087 23.5364 3.44887C23.5364 4.81026 22.7976 5.88957 21.6306 5.88957C20.4165 5.88957 19.7554 4.78083 19.7554 3.40226C19.7554 2.01143 20.4259 0.932129 21.6306 0.932129Z" fill="#333E47"/>
<path fill-rule="evenodd" clip-rule="evenodd" d="M25.1423 5.7939H24.3117C24.2294 5.789 24.1611 5.72031 24.1611 5.63446V1.17007C24.1682 1.08912 24.2364 1.02534 24.3211 1.02534H25.0952C25.1682 1.03025 25.227 1.08176 25.2435 1.15044V1.83237H25.2599C25.4929 1.22158 25.8199 0.932129 26.3964 0.932129C26.7705 0.932129 27.1352 1.07195 27.3681 1.45706C27.5869 1.81274 27.5869 2.41372 27.5869 2.84544V5.65163C27.5775 5.73013 27.5093 5.79145 27.4269 5.79145H26.5916C26.514 5.78655 26.4528 5.72767 26.4434 5.65163V3.23056C26.4434 2.74242 26.4975 2.0286 25.9211 2.0286C25.7187 2.0286 25.5329 2.16842 25.4387 2.38428C25.3211 2.65656 25.307 2.92884 25.307 3.23056V5.63201C25.3023 5.72277 25.2317 5.7939 25.1423 5.7939Z" fill="#333E47"/>
<path fill-rule="evenodd" clip-rule="evenodd" d="M14.8767 5.78086C14.8226 5.83237 14.7426 5.83482 14.6791 5.80048C14.4014 5.56009 14.352 5.44971 14.2014 5.22158C13.745 5.70727 13.4203 5.85445 12.8273 5.85445C12.1262 5.85445 11.5803 5.4031 11.5803 4.50041C11.5803 3.79396 11.9474 3.31563 12.4697 3.08014C12.9215 2.8741 13.5544 2.83485 14.0367 2.77843V2.66559C14.0367 2.45954 14.0532 2.21425 13.9355 2.03518C13.8344 1.87574 13.6391 1.80951 13.4673 1.80951C13.1497 1.80951 12.8673 1.97876 12.7968 2.33199C12.7826 2.41049 12.7285 2.48898 12.6532 2.49143L11.8438 2.40067C11.7756 2.3835 11.7003 2.32708 11.7191 2.21915C11.9027 1.21099 12.7662 0.897007 13.5497 0.889648H13.6108C14.0132 0.894554 14.5261 1.00984 14.8367 1.32137C15.2414 1.7163 15.2037 2.24368 15.2037 2.81768V4.17171C15.2037 4.5789 15.3661 4.75797 15.519 4.97628C15.5731 5.05478 15.5849 5.15044 15.5167 5.20686C15.3473 5.35649 15.0437 5.62877 14.8767 5.78086ZM14.0344 3.6615C14.0344 4.00001 14.0414 4.2821 13.8791 4.58381C13.7473 4.82911 13.5356 4.97874 13.3026 4.97874C12.9826 4.97874 12.7968 4.72363 12.7968 4.34833C12.7968 3.60753 13.4344 3.47262 14.0367 3.47262V3.6615H14.0344Z" fill="#333E47"/>
<path fill-rule="evenodd" clip-rule="evenodd" d="M3.94335 5.78428C3.88923 5.83579 3.80923 5.83825 3.74571 5.80391C3.46807 5.56352 3.41866 5.45313 3.26807 5.22501C2.80926 5.71069 2.48692 5.85787 1.894 5.85787C1.19284 5.85787 0.646973 5.40653 0.646973 4.50384C0.646973 3.79738 1.01402 3.31906 1.53636 3.08357C1.98811 2.87752 2.62103 2.83828 3.10337 2.78186V2.66902C3.10337 2.46297 3.11984 2.21768 3.0022 2.03861C2.90103 1.87917 2.70574 1.81294 2.53398 1.81294C2.21634 1.81294 1.93399 1.98219 1.86341 2.33542C1.84929 2.41391 1.79517 2.48996 1.71988 2.49486L0.910494 2.4041C0.842261 2.38693 0.766969 2.33051 0.785792 2.22013C0.969316 1.21196 1.83282 0.897984 2.61633 0.890625H2.6775C3.07984 0.895531 3.59277 1.01082 3.90335 1.32235C4.30804 1.71727 4.2704 2.24466 4.2704 2.81865V4.17269C4.2704 4.57988 4.43275 4.75895 4.58568 4.97726C4.6398 5.05575 4.65156 5.15142 4.58333 5.20784C4.41628 5.35992 4.11275 5.6322 3.94335 5.78428ZM3.10337 3.66492C3.10337 4.00343 3.11043 4.28552 2.94808 4.58724C2.81632 4.83253 2.60456 4.98216 2.37163 4.98216C2.05164 4.98216 1.86576 4.72706 1.86576 4.35175C1.86576 3.61096 2.50339 3.47605 3.10573 3.47605V3.66492H3.10337Z" fill="#333E47"/>
<path fill-rule="evenodd" clip-rule="evenodd" d="M38.9849 7.39427C38.9849 7.28144 38.9849 7.18086 38.9849 7.06557C38.9849 6.97236 39.0296 6.90859 39.1213 6.91349C39.2955 6.94047 39.5425 6.965 39.7166 6.92821C39.9449 6.87915 40.1096 6.7099 40.206 6.47932C40.3425 6.15307 40.4319 5.89061 40.4907 5.7189L38.7567 1.2398C38.7284 1.16376 38.719 1.02148 38.8649 1.02148H39.4719C39.5872 1.02148 39.6343 1.09753 39.6602 1.17357L40.9166 4.81131L42.1166 1.17357C42.1401 1.09998 42.1895 1.02148 42.3048 1.02148H42.8765C43.0201 1.02148 43.013 1.1613 42.9848 1.2398L41.2648 5.85872C41.0413 6.47441 40.7448 7.45314 40.0766 7.6224C39.7425 7.71316 39.319 7.68127 39.0719 7.57334C39.0084 7.54145 38.9849 7.45314 38.9849 7.39427Z" fill="#333E47"/>
<path fill-rule="evenodd" clip-rule="evenodd" d="M38.1741 5.52333C38.1741 5.60673 38.1082 5.67541 38.0282 5.67541H37.6C37.5083 5.67541 37.4447 5.60673 37.433 5.52333L37.3906 5.21916C37.193 5.39332 36.953 5.54541 36.6918 5.65088C36.1883 5.85448 35.6095 5.88882 35.1177 5.57484C34.7624 5.34672 34.5742 4.90273 34.5742 4.44403C34.5742 4.08835 34.6801 3.73757 34.9107 3.48247C35.2213 3.13414 35.6707 2.96244 36.2142 2.96244C36.5412 2.96244 37.0118 3.00168 37.353 3.11943V2.50619C37.353 1.88559 37.1012 1.61576 36.4401 1.61576C35.9342 1.61576 35.5483 1.69425 35.0095 1.86842C34.9224 1.87087 34.873 1.80219 34.873 1.71878V1.37537C34.873 1.29197 34.9413 1.21102 35.0166 1.18649C35.4001 1.01233 35.9436 0.901948 36.5224 0.882324C37.2753 0.882324 38.1718 1.05894 38.1718 2.26825V5.52333H38.1741ZM37.353 4.63045V3.70814C37.0659 3.62719 36.5906 3.59285 36.4071 3.59285C36.1177 3.59285 35.7977 3.66398 35.633 3.85041C35.5083 3.98778 35.4518 4.18401 35.4518 4.37289C35.4518 4.61819 35.5342 4.86348 35.7224 4.98613C35.9436 5.14312 36.2848 5.1235 36.6071 5.02783C36.9177 4.93707 37.2071 4.77518 37.353 4.63045Z" fill="#333E47"/>
<path fill-rule="evenodd" clip-rule="evenodd" d="M31.8701 1.629C32.8183 1.629 33.0772 2.40659 33.0772 3.29702C33.0819 3.89799 32.976 4.43274 32.6772 4.73936C32.4536 4.96994 32.2042 5.03126 31.8301 5.03126C31.496 5.03126 31.056 4.84974 30.729 4.59709V2.05091C31.0701 1.77863 31.5054 1.629 31.8701 1.629ZM30.5831 7.55291H30.0114C29.9314 7.55291 29.8655 7.48423 29.8655 7.40083C29.8655 5.32807 29.8655 3.25286 29.8655 1.18011C29.8655 1.09671 29.9314 1.02803 30.0114 1.02803H30.449C30.5408 1.02803 30.6043 1.09671 30.616 1.18011L30.6631 1.50635C31.0749 1.12614 31.6019 0.883301 32.1054 0.883301C33.5148 0.883301 33.9807 2.09506 33.9807 3.35589C33.9807 4.70502 33.2701 5.78678 32.0725 5.78678C31.5666 5.78678 31.0937 5.59299 30.7313 5.25448V7.40328C30.729 7.48668 30.6631 7.55291 30.5831 7.55291Z" fill="#333E47"/>
</svg>
