<svg width="24" height="24" viewBox="0 0 24 24" fill="none" xmlns="http://www.w3.org/2000/svg">
<path d="M16.1021 6H18.3803C19.4203 6 20.2957 6.75909 20.4172 7.76632L21.9857 20.7663C22.1291 21.9553 21.1764 23 19.9487 23H4.05131C2.82357 23 1.87087 21.9553 2.01432 20.7663L3.58276 7.76632C3.70428 6.75909 4.57969 6 5.61974 6H7.89793M16.1021 6H7.89793M16.1021 6V5C16.1021 2.79086 14.2655 1 12 1C9.73449 1 7.89793 2.79086 7.89793 5V6M16.1021 6V8M7.89793 6V8" stroke="" stroke-width="1.5" stroke-linecap="round" stroke-linejoin="round"/>
</svg>
