<svg width="25" height="25" viewBox="0 0 25 25" fill="none" xmlns="http://www.w3.org/2000/svg">
<path d="M22 13C22 12.7348 22.1054 12.4804 22.2929 12.2929C22.4804 12.1054 22.7348 12 23 12C23.2652 12 23.5196 12.1054 23.7071 12.2929C23.8946 12.4804 24 12.7348 24 13V24C24 24.2652 23.8946 24.5196 23.7071 24.7071C23.5196 24.8946 23.2652 25 23 25H1C0.734784 25 0.48043 24.8946 0.292893 24.7071C0.105357 24.5196 0 24.2652 0 24V2C0 1.73478 0.105357 1.48043 0.292893 1.29289C0.48043 1.10536 0.734784 1 1 1H12C12.2652 1 12.5196 1.10536 12.7071 1.29289C12.8946 1.48043 13 1.73478 13 2C13 2.26522 12.8946 2.51957 12.7071 2.70711C12.5196 2.89464 12.2652 3 12 3H2V23H22V13Z" fill=""/>
<path d="M10.686 14.3195L12.336 14.0835L22.472 3.94952C22.5675 3.85728 22.6437 3.74693 22.6961 3.62493C22.7485 3.50292 22.7761 3.3717 22.7772 3.23892C22.7784 3.10615 22.7531 2.97447 22.7028 2.85157C22.6525 2.72867 22.5783 2.61702 22.4844 2.52313C22.3905 2.42924 22.2788 2.35498 22.1559 2.3047C22.033 2.25442 21.9013 2.22912 21.7686 2.23027C21.6358 2.23143 21.5046 2.25901 21.3826 2.31142C21.2606 2.36383 21.1502 2.44001 21.058 2.53552L10.92 12.6695L10.684 14.3195H10.686ZM23.886 1.11952C24.1647 1.39812 24.3859 1.72893 24.5368 2.09303C24.6877 2.45713 24.7653 2.8474 24.7653 3.24152C24.7653 3.63565 24.6877 4.02592 24.5368 4.39002C24.3859 4.75412 24.1647 5.08492 23.886 5.36352L13.516 15.7335C13.363 15.887 13.1644 15.9867 12.95 16.0175L9.64997 16.4895C9.49618 16.5116 9.33935 16.4976 9.19194 16.4485C9.04452 16.3994 8.91057 16.3166 8.80071 16.2068C8.69084 16.0969 8.60809 15.963 8.55901 15.8156C8.50993 15.6681 8.49588 15.5113 8.51797 15.3575L8.98997 12.0575C9.02027 11.8433 9.11922 11.6447 9.27197 11.4915L19.644 1.12152C20.2066 0.55911 20.9695 0.243164 21.765 0.243164C22.5605 0.243164 23.3234 0.55911 23.886 1.12152V1.11952Z" fill=""/>
</svg>
