<svg width="18" height="20" viewBox="0 0 18 20" fill="none" xmlns="http://www.w3.org/2000/svg">
<path d="M1.27815 4.40033L0.701989 4.88047H0.701989L1.27815 4.40033ZM6.94716 11.2031L6.37099 11.6833L6.94716 11.2031ZM8.00012 17.1667L8.45012 16.5667L8.00012 17.1667ZM9.33345 18.1667L9.78345 17.5667L9.78345 17.5667L9.33345 18.1667ZM11.0531 11.2031L11.6292 11.6833L11.6292 11.6833L11.0531 11.2031ZM16.7221 4.40033L17.2983 4.88046L16.7221 4.40033ZM0.701989 4.88047L6.37099 11.6833L7.52332 10.723L1.85432 3.92019L0.701989 4.88047ZM6.58345 12.2701V15.8334H8.08345V12.2701H6.58345ZM7.55012 17.7667L8.88345 18.7667L9.78345 17.5667L8.45012 16.5667L7.55012 17.7667ZM11.4168 17.5V12.2701H9.91679V17.5H11.4168ZM11.6292 11.6833L17.2983 4.88046L16.1459 3.92019L10.4769 10.723L11.6292 11.6833ZM15.4417 0.916687H2.55852V2.41669H15.4417V0.916687ZM17.2983 4.88046C18.61 3.30642 17.4907 0.916687 15.4417 0.916687V2.41669C16.2189 2.41669 16.6435 3.32314 16.1459 3.92019L17.2983 4.88046ZM11.4168 12.2701C11.4168 12.0557 11.492 11.848 11.6292 11.6833L10.4769 10.723C10.115 11.1573 9.91679 11.7048 9.91679 12.2701H11.4168ZM8.88345 18.7667C9.92724 19.5495 11.4168 18.8048 11.4168 17.5H9.91679C9.91679 17.5249 9.91079 17.537 9.90599 17.5445C9.89955 17.5544 9.88793 17.566 9.87072 17.5746C9.85351 17.5832 9.83731 17.5855 9.82548 17.5847C9.81667 17.5841 9.80336 17.5816 9.78345 17.5667L8.88345 18.7667ZM6.58345 15.8334C6.58345 16.594 6.94159 17.3103 7.55012 17.7667L8.45012 16.5667C8.2193 16.3936 8.08345 16.1219 8.08345 15.8334H6.58345ZM6.37099 11.6833C6.50827 11.848 6.58345 12.0557 6.58345 12.2701H8.08345C8.08345 11.7048 7.88525 11.1573 7.52332 10.723L6.37099 11.6833ZM1.85432 3.92019C1.35678 3.32314 1.78134 2.41669 2.55852 2.41669V0.916687C0.509583 0.916687 -0.609711 3.30643 0.701989 4.88047L1.85432 3.92019Z" fill=""/>
</svg>
