<svg width="27" height="29" viewBox="0 0 27 29" fill="none" xmlns="http://www.w3.org/2000/svg">
<path d="M21.9999 19.0002C21.2514 19.004 20.5133 19.1757 19.84 19.5029C19.1668 19.83 18.5755 20.3041 18.1099 20.8902L10.7999 16.3202C11.0664 15.4604 11.0664 14.54 10.7999 13.6802L18.1099 9.1102C18.8519 10.0289 19.8951 10.6554 21.0547 10.8786C22.2143 11.1018 23.4155 10.9074 24.4455 10.3298C25.4755 9.75222 26.2678 8.8287 26.6821 7.72285C27.0963 6.61701 27.1058 5.40022 26.7089 4.28804C26.3119 3.17585 25.5341 2.24006 24.5133 1.64643C23.4925 1.05281 22.2944 0.839654 21.1315 1.04474C19.9685 1.24983 18.9157 1.85991 18.1595 2.76692C17.4033 3.67394 16.9925 4.81933 16.9999 6.0002C17.0047 6.44738 17.072 6.8917 17.1999 7.3202L9.88994 11.8902C9.24459 11.0778 8.36248 10.4863 7.36589 10.1976C6.3693 9.90895 5.3076 9.93747 4.32795 10.2792C3.3483 10.621 2.49923 11.259 1.89843 12.1049C1.29762 12.9508 0.974854 13.9627 0.974854 15.0002C0.974854 16.0378 1.29762 17.0496 1.89843 17.8955C2.49923 18.7414 3.3483 19.3794 4.32795 19.7212C5.3076 20.0629 6.3693 20.0915 7.36589 19.8028C8.36248 19.5142 9.24459 18.9226 9.88994 18.1102L17.1999 22.6802C17.072 23.1087 17.0047 23.553 16.9999 24.0002C16.9999 24.9891 17.2932 25.9558 17.8426 26.7781C18.392 27.6003 19.1729 28.2412 20.0865 28.6196C21.0002 28.998 22.0055 29.0971 22.9754 28.9041C23.9453 28.7112 24.8362 28.235 25.5355 27.5357C26.2347 26.8365 26.7109 25.9456 26.9039 24.9757C27.0968 24.0058 26.9978 23.0004 26.6193 22.0868C26.2409 21.1732 25.6 20.3923 24.7778 19.8429C23.9555 19.2934 22.9888 19.0002 21.9999 19.0002V19.0002ZM21.9999 3.0002C22.5933 3.0002 23.1733 3.17615 23.6666 3.5058C24.16 3.83544 24.5445 4.30398 24.7716 4.85215C24.9986 5.40033 25.0581 6.00353 24.9423 6.58547C24.8265 7.16742 24.5408 7.70197 24.1213 8.12152C23.7017 8.54108 23.1672 8.8268 22.5852 8.94256C22.0033 9.05832 21.4001 8.99891 20.8519 8.77184C20.3037 8.54478 19.8352 8.16026 19.5055 7.66691C19.1759 7.17357 18.9999 6.59355 18.9999 6.0002C18.9999 5.20455 19.316 4.44149 19.8786 3.87888C20.4412 3.31627 21.2043 3.0002 21.9999 3.0002V3.0002ZM5.99994 18.0002C5.4066 18.0002 4.82658 17.8243 4.33323 17.4946C3.83988 17.165 3.45536 16.6964 3.2283 16.1483C3.00124 15.6001 2.94183 14.9969 3.05758 14.4149C3.17334 13.833 3.45906 13.2984 3.87862 12.8789C4.29818 12.4593 4.83273 12.1736 5.41467 12.0578C5.99661 11.9421 6.59981 12.0015 7.14799 12.2286C7.69617 12.4556 8.1647 12.8401 8.49435 13.3335C8.82399 13.8268 8.99994 14.4069 8.99994 15.0002C8.99994 15.7959 8.68387 16.5589 8.12126 17.1215C7.55865 17.6841 6.79559 18.0002 5.99994 18.0002ZM21.9999 27.0002C21.4066 27.0002 20.8266 26.8243 20.3332 26.4946C19.8399 26.165 19.4554 25.6964 19.2283 25.1483C19.0012 24.6001 18.9418 23.9969 19.0576 23.4149C19.1733 22.833 19.4591 22.2984 19.8786 21.8789C20.2982 21.4593 20.8327 21.1736 21.4147 21.0578C21.9966 20.9421 22.5998 21.0015 23.148 21.2286C23.6962 21.4556 24.1647 21.8401 24.4943 22.3335C24.824 22.8268 24.9999 23.4069 24.9999 24.0002C24.9999 24.7959 24.6839 25.5589 24.1213 26.1215C23.5587 26.6841 22.7956 27.0002 21.9999 27.0002V27.0002Z" fill=""/>
</svg>
