<svg width="18" height="15" viewBox="0 0 18 15" fill="none" xmlns="http://www.w3.org/2000/svg">
<path d="M16.1498 3.51837C16.1612 3.67277 16.1612 3.82721 16.1612 3.98162C16.1612 8.69115 12.4493 14.1176 5.66499 14.1176C3.57488 14.1176 1.63326 13.5331 0 12.5184C0.296966 12.5515 0.582471 12.5625 0.890863 12.5625C2.61546 12.5625 4.20305 12 5.47083 11.0405C3.84899 11.0074 2.48985 9.98163 2.02156 8.56985C2.25001 8.60292 2.47842 8.62498 2.71829 8.62498C3.0495 8.62498 3.38074 8.58085 3.6891 8.50368C1.99875 8.17277 0.730936 6.73896 0.730936 5.00735V4.96325C1.22204 5.22795 1.79315 5.39339 2.39844 5.41542C1.40478 4.77571 0.753788 3.68381 0.753788 2.4485C0.753788 1.78675 0.936496 1.18013 1.25631 0.650719C3.07232 2.81248 5.80203 4.22422 8.86293 4.37866C8.80583 4.11395 8.77155 3.83825 8.77155 3.5625C8.77155 1.59925 10.4162 0 12.4607 0C13.5228 0 14.4822 0.430146 15.1561 1.125C15.9898 0.970595 16.7893 0.672786 17.4975 0.264708C17.2233 1.09193 16.6409 1.78679 15.8756 2.22793C16.618 2.15076 17.3376 1.95219 18 1.67648C17.4975 2.38234 16.8693 3.01099 16.1498 3.51837Z" fill=""/>
</svg>
