<svg width="22" height="22" viewBox="0 0 22 22" fill="none" xmlns="http://www.w3.org/2000/svg">
<path d="M21 4C21 5.65685 19.6569 7 18 7C16.8255 7 15.8087 6.32508 15.3161 5.34193C15.1138 4.93815 15 4.48237 15 4C15 2.34315 16.3431 1 18 1C19.6569 1 21 2.34315 21 4Z" fill=""/>
<path d="M21 18C21 19.6569 19.6569 21 18 21C16.3431 21 15 19.6569 15 18C15 17.5176 15.1138 17.0619 15.3161 16.6581C15.8087 15.6749 16.8255 15 18 15C19.6569 15 21 16.3431 21 18Z" fill=""/>
<path d="M7 11C7 11.4824 6.88616 11.9381 6.68387 12.3419C6.19134 13.3251 5.17449 14 4 14C2.34315 14 1 12.6569 1 11C1 9.34315 2.34315 8 4 8C5.17449 8 6.19134 8.67492 6.68387 9.65807C6.88616 10.0619 7 10.5176 7 11Z" fill=""/>
<path d="M6.68387 9.65807C6.19134 8.67492 5.17449 8 4 8C2.34315 8 1 9.34315 1 11C1 12.6569 2.34315 14 4 14C5.17449 14 6.19134 13.3251 6.68387 12.3419M6.68387 9.65807C6.88616 10.0619 7 10.5176 7 11C7 11.4824 6.88616 11.9381 6.68387 12.3419M6.68387 9.65807L15.3161 5.34193M6.68387 12.3419L15.3161 16.6581M15.3161 5.34193C15.8087 6.32508 16.8255 7 18 7C19.6569 7 21 5.65685 21 4C21 2.34315 19.6569 1 18 1C16.3431 1 15 2.34315 15 4C15 4.48237 15.1138 4.93815 15.3161 5.34193ZM15.3161 16.6581C15.1138 17.0619 15 17.5176 15 18C15 19.6569 16.3431 21 18 21C19.6569 21 21 19.6569 21 18C21 16.3431 19.6569 15 18 15C16.8255 15 15.8087 15.6749 15.3161 16.6581Z" stroke="" stroke-linecap="round"/>
</svg>
