<svg width="20" height="16" viewBox="0 0 20 16" fill="none" xmlns="http://www.w3.org/2000/svg">
<path d="M10.0001 2.30906L9.51278 2.89838L10.0001 3.30135L10.4874 2.89838L10.0001 2.30906ZM10.4889 1.90484L10.9762 2.49416L10.9762 2.49416L10.4889 1.90484ZM17.1929 8.98803L17.7647 9.49583L17.7647 9.49583L17.1929 8.98803ZM2.80729 8.98803L2.23552 9.49583L2.23552 9.49583L2.80729 8.98803ZM9.51127 1.90484L9.99858 1.31552L9.99858 1.31552L9.51127 1.90484ZM3.01613 2.27668L3.56573 2.80839L3.01613 2.27668ZM16.9841 2.27668L17.5337 1.74496L17.5337 1.74496L16.9841 2.27668ZM10.4874 2.89838L10.9762 2.49416L10.0016 1.31552L9.51278 1.71974L10.4874 2.89838ZM16.6211 8.48023C15.3946 9.86129 13.9653 11.3915 12.6783 12.5712C12.0333 13.1623 11.4414 13.6494 10.9407 13.984C10.6905 14.1512 10.4778 14.2702 10.3043 14.3454C10.1236 14.4237 10.0283 14.4355 10.0001 14.4355V15.9649C10.3205 15.9649 10.6343 15.8692 10.9124 15.7488C11.1976 15.6251 11.4934 15.454 11.7904 15.2557C12.3838 14.8591 13.0408 14.3135 13.7117 13.6986C15.0563 12.4661 16.5263 10.8902 17.7647 9.49583L16.6211 8.48023ZM10.0001 14.4355C9.97192 14.4355 9.87659 14.4237 9.69587 14.3454C9.52236 14.2702 9.30971 14.1512 9.05952 13.984C8.55877 13.6494 7.96689 13.1623 7.32194 12.5712C6.03495 11.3915 4.6056 9.86129 3.37905 8.48023L2.23552 9.49583C3.47392 10.8902 4.94388 12.4661 6.28851 13.6986C6.95938 14.3135 7.61638 14.8591 8.20984 15.2557C8.50676 15.454 8.80255 15.6251 9.08783 15.7488C9.3659 15.8692 9.67973 15.9649 10.0001 15.9649V14.4355ZM9.02395 2.49416L9.51278 2.89838L10.4874 1.71974L9.99858 1.31552L9.02395 2.49416ZM3.56573 2.80839C5.04694 1.27735 7.39294 1.14547 9.02395 2.49416L9.99858 1.31552C7.7486 -0.544999 4.4997 -0.356589 2.46653 1.74496L3.56573 2.80839ZM3.37905 8.48023C1.95152 6.87288 2.0467 4.3785 3.56573 2.80839L2.46653 1.74496C0.418378 3.862 0.251513 7.26189 2.23552 9.49583L3.37905 8.48023ZM16.4345 2.80839C17.9535 4.3785 18.0487 6.87288 16.6211 8.48023L17.7647 9.49583C19.7487 7.26189 19.5818 3.862 17.5337 1.74496L16.4345 2.80839ZM10.9762 2.49416C12.6073 1.14547 14.9533 1.27735 16.4345 2.80839L17.5337 1.74496C15.5005 -0.356589 12.2516 -0.544999 10.0016 1.31552L10.9762 2.49416Z" fill=""/>
</svg>
