<svg width="19" height="19" viewBox="0 0 19 19" fill="none" xmlns="http://www.w3.org/2000/svg">
<path d="M18.3306 18.3334V18.3327H18.3351V12.081C18.3351 9.02267 17.6379 6.66675 13.8515 6.66675C12.0313 6.66675 10.8098 7.60997 10.3111 8.50418H10.2585V6.95227H6.66846V18.3327H10.4067V12.6975C10.4067 11.2138 10.7045 9.77909 12.6503 9.77909C14.5676 9.77909 14.5962 11.4723 14.5962 12.7927V18.3334H18.3306Z" fill=""/>
<path d="M0.000976562 6.66675H5.00098V18.3334H0.000976562V6.66675Z" fill=""/>
<path d="M2.5 0C1.11988 0 0 1.11466 0 2.48834C0 3.86203 1.11988 5 2.5 5C3.88012 5 5 3.86203 5 2.48834C4.99913 1.11466 3.87925 0 2.5 0V0Z" fill=""/>
</svg>
