<svg width="22" height="24" viewBox="0 0 22 24" fill="none" xmlns="http://www.w3.org/2000/svg">
<path d="M15.1021 6H17.3803C18.4203 6 19.2957 6.75909 19.4172 7.76632L20.9857 20.7663C21.1291 21.9553 20.1764 23 18.9487 23H3.05131C1.82357 23 0.870868 21.9553 1.01432 20.7663L2.58276 7.76632C2.70428 6.75909 3.57969 6 4.61974 6H6.89793M15.1021 6H6.89793M15.1021 6V5C15.1021 2.79086 13.2655 1 11 1C8.73449 1 6.89793 2.79086 6.89793 5V6M15.1021 6V8M6.89793 6V8" stroke="" stroke-width="2" stroke-linecap="round" stroke-linejoin="round"/>
</svg>
